<?xml version="1.0" encoding="UTF-8"?>
<!DOCTYPE svg PUBLIC "-//W3C//DTD SVG 1.1//EN" "http://www.w3.org/Graphics/SVG/1.1/DTD/svg11.dtd">
<!-- Creator: CorelDRAW 2017 -->
<svg xmlns="http://www.w3.org/2000/svg" xml:space="preserve" width="97.8916mm" height="50.8mm" version="1.1" style="shape-rendering:geometricPrecision; text-rendering:geometricPrecision; image-rendering:optimizeQuality; fill-rule:evenodd; clip-rule:evenodd"
viewBox="0 0 9789.16 5080"
 xmlns:xlink="http://www.w3.org/1999/xlink">
 <defs>
  <style type="text/css">
   <![CDATA[
    .fil1 {fill:#009846;fill-rule:nonzero}
    .fil0 {fill:#045191;fill-rule:nonzero}
    .fil2 {fill:#2B2A29;fill-rule:nonzero}
   ]]>
  </style>
 </defs>
 <g id="Layer_x0020_1">
  <metadata id="CorelCorpID_0Corel-Layer"/>
  <g id="_2697223136288">
   <path class="fil0" d="M2071.02 873.24l-447.8 0 0 498.86 -322.1 0 0 392.8 314.25 0 0 974.17c0,510.64 302.45,813.1 809.17,813.1 129.63,0 227.83,-15.71 286.75,-27.49l0 -396.74c-70.7,11.79 -133.55,19.64 -192.47,19.64 -259.25,0 -447.8,-125.7 -447.8,-432.09l0 -950.59 593.13 0 0 -392.8 -593.13 0 0 -498.86z"/>
   <path class="fil0" d="M-0.28 3538.2l463.51 0 0 -1154.86c0,-412.44 274.96,-577.42 549.92,-577.42 54.99,0 109.99,3.94 161.05,15.72l0 -439.94c-43.2,-7.86 -90.34,-11.79 -149.26,-11.79 -192.48,0 -455.66,86.42 -600.99,357.45l-7.86 0 -47.14 -333.88 -369.23 0 0 2144.72z"/>
   <path class="fil1" d="M4950.96 2387.52c28.1,-555.88 229.59,-1072.75 557.18,-1490.46 328.16,-418.34 782.31,-737.52 1314.97,-897.09l127.32 427.35c-443.02,132.69 -820,397.26 -1091.68,743.61 -272.23,347.05 -439.66,776.31 -462.93,1237.57l-444.86 -20.98z"/>
   <path class="fil1" d="M3790.48 2590.09c300.77,0 573.87,122.31 772.06,320.2l0.87 0.89c197.88,198.19 320.22,471.24 320.22,771.96 0,301.19 -122.36,574.17 -320.2,772l-0.87 0.85c-197.81,197.83 -470.81,320.18 -771.98,320.18 -301.19,0 -574.19,-122.37 -771.98,-320.18l-0.87 0c-197.76,-197.76 -320.18,-471.04 -320.18,-772.75l446.58 0c0,178.47 72.38,340.16 189.3,457.05l-0.45 0.45c116.92,116.72 278.7,188.85 457.6,188.85 178.9,0 340.68,-72.13 457.6,-188.85 116.72,-116.92 188.85,-278.73 188.85,-457.6 0,-179.12 -72.03,-340.73 -188.48,-457.15l-0.84 -0.87c-116.35,-116.38 -278.06,-188.46 -457.13,-188.46l-0.1 -446.57z"/>
   <path class="fil1" d="M2925.84 2110.74c0,-255.64 103.68,-487.18 271.26,-654.69 167.51,-167.58 399.06,-271.26 654.69,-271.26 255.06,0 486.26,103.68 653.87,271.26l0.87 0c167.53,167.51 271.21,399.08 271.21,654.74 0,255.61 -103.68,487.13 -271.21,654.69 -167.56,167.53 -399.13,271.21 -654.69,271.21l0 -446.53c132.37,0 252.25,-53.67 338.99,-140.38 86.71,-86.74 140.33,-206.62 140.33,-338.99 0,-132.42 -53.62,-252.35 -140.33,-339.04l0.45 -0.45c-86.69,-86.46 -206.72,-139.91 -339.49,-139.91 -132.42,0 -252.3,53.62 -338.99,140.36 -86.76,86.69 -140.38,206.59 -140.38,338.99l-446.58 0z"/>
   <path class="fil1" d="M6115.6 1246.02c321,0 612.29,130.71 823.66,341.88l0.42 -0.45c210.9,210.92 341.43,502.31 341.43,824.13 0,321.72 -130.53,613.16 -341.43,824.04 -210.92,210.92 -502.28,341.4 -824.08,341.4 -321.74,0 -613.18,-130.48 -824.06,-341.4l0.4 -0.45c-211.17,-211.3 -341.82,-502.61 -341.82,-823.59 0,-321.82 130.5,-613.21 341.42,-824.13 210.88,-210.87 502.32,-341.43 824.06,-341.43zm508.38 656.26c-129.48,-129.51 -309.2,-209.65 -508.38,-209.65 -198.53,0 -378.3,80.46 -508.36,210.52 -130.1,130.11 -210.57,309.83 -210.57,508.43 0,199.11 80.14,378.88 209.7,508.34l0.87 0c130.06,130.1 309.83,210.55 508.36,210.55 198.56,0 378.3,-80.45 508.38,-210.55 130.06,-130.06 210.55,-309.85 210.55,-508.34 0,-198.6 -80.49,-378.32 -210.55,-508.43l0 -0.87z"/>
   <path class="fil1" d="M9632.65 1829.68c51.86,89.84 91.05,184.19 116.87,280.51 26.35,98.43 39.91,199.83 39.91,301.37 0,321.74 -130.5,613.13 -341.42,824.03 -210.87,210.95 -502.29,341.43 -824.06,341.43 -321.79,0 -613.18,-130.48 -824.11,-341.43l0.45 -0.42c-211.19,-211.3 -341.85,-502.61 -341.85,-823.61 0,-321.8 130.51,-613.19 341.4,-824.11 210.93,-210.87 502.32,-341.43 824.11,-341.43l0 -342.29 932.82 538.96 -932.82 538.96 0 -289.02c-198.56,0 -378.3,80.46 -508.41,210.52 -130.05,130.11 -210.52,309.83 -210.52,508.41 0,199.15 80.17,378.87 209.65,508.36l0.87 0c130.11,130.05 309.85,210.55 508.41,210.55 198.53,0 378.3,-80.5 508.36,-210.55 130.06,-130.06 210.55,-309.85 210.55,-508.36 0,-63.77 -8.29,-126.5 -24.26,-186.24 -16.67,-62.13 -40.63,-120.73 -71.39,-174.12l385.44 -221.52z"/>
   <path class="fil2" d="M5228.99 4359.38l0 -486.75 176.87 0c36.93,0 64.12,4.53 81.8,13.59 17.55,9.08 31.95,24.26 43.28,45.33 11.22,21.19 16.88,45.77 16.88,73.65 0,36.82 -9.51,66.62 -28.66,89.39 -19.15,22.78 -47.03,37.28 -83.51,43.51 14.84,8.84 26.18,17.68 33.99,26.74 15.64,18.58 29.47,39.31 41.36,62.09l69.45 132.45 -66.28 0 -53.36 -101.06c-20.62,-39.43 -36.14,-66.18 -46.69,-79.99 -10.42,-13.83 -20.5,-23.12 -30.36,-27.88 -9.75,-4.88 -23.46,-7.25 -41.02,-7.25l-60.73 0 0 216.18 -53.02 0zm53.02 -271.93l113.3 0c24.82,0 43.51,-2.94 56.43,-8.95 12.81,-6 22.88,-15.41 30.48,-28.21 7.48,-12.91 11.21,-27.87 11.21,-44.87 0,-24.58 -7.13,-43.96 -21.52,-58 -14.39,-14.06 -35.69,-21.09 -64.02,-21.09l-125.88 0 0 161.12zm342.52 -146.15l0 -68.67 48.94 0 0 68.67 -48.94 0zm0 418.08l0 -352.83 48.94 0 0 352.83 -48.94 0zm104.8 -105.37l48.95 -8.84c2.83,24.81 10.65,43.28 23.45,55.29 12.8,12.12 29.69,18.13 50.87,18.13 21.19,0 37.51,-5.32 49.06,-15.87 11.56,-10.53 17.33,-23.9 17.33,-40.09 0,-13.95 -4.86,-24.82 -14.61,-32.64 -6.8,-5.32 -23.34,-11.9 -49.63,-19.94 -38.06,-11.68 -63.56,-21.64 -76.47,-29.8 -12.92,-8.16 -23.01,-19.15 -30.14,-32.86 -7.14,-13.71 -10.66,-29.35 -10.66,-46.79 0,-30.02 9.64,-54.5 28.9,-73.31 19.26,-18.81 46,-28.21 80.11,-28.21 21.41,0 40.33,3.85 56.65,11.67 16.2,7.71 28.66,18.24 37.38,31.27 8.62,13.15 14.62,31.84 17.91,56.31l-47.59 8.84c-4.42,-39.43 -25.5,-59.15 -63,-59.15 -21.41,0 -37.27,4.31 -47.81,12.81 -10.43,8.49 -15.64,19.38 -15.64,32.63 0,13.03 4.99,23.34 15.07,30.81 6.01,4.43 23.91,11.57 53.71,21.3 40.68,12.35 66.85,22.44 78.74,30.15 11.78,7.59 20.96,18.13 27.53,31.26 6.58,13.26 9.86,29.01 9.86,47.25 0,33.77 -10.64,61.07 -32.07,81.93 -21.3,20.96 -50.41,31.37 -87.46,31.37 -69.23,0 -109.34,-37.83 -120.44,-113.52zm299.23 105.37l0 -486.75 48.95 0 0 276.46 115.9 -142.54 63.8 0 -110.58 130.98 121.56 221.85 -60.04 0 -96.54 -180.37 -34.1 40.45 0 139.92 -48.95 0zm437.91 0l0 -486.75 79.43 0 94.38 344.67 18.92 72.06c4.65,-18.01 11.67,-43.96 21.19,-78.07l95.52 -338.66 71.25 0 0 486.75 -50.98 0 0 -409.25 -116.02 409.25 -47.59 0 -115.12 -415.93 0 415.93 -50.98 0zm647.3 -43.4c-16.44,17.12 -33.43,29.91 -51.1,38.53 -17.79,8.72 -36.15,13.02 -55.19,13.02 -30.13,0 -54.15,-9.06 -72.05,-27.3 -18.01,-18.13 -26.96,-42.6 -26.96,-73.42 0,-20.39 4.18,-38.4 12.68,-54.15 8.39,-15.75 19.94,-28.1 34.56,-36.94 14.62,-8.85 36.82,-15.41 66.51,-19.6 39.88,-5.67 69.22,-12.47 87.81,-20.39l0.34 -15.3c0,-24.26 -4.3,-41.25 -12.92,-51.11 -12.12,-14.15 -30.82,-21.3 -55.96,-21.3 -22.78,0 -39.78,4.77 -51.11,14.16 -11.21,9.41 -19.49,27.2 -24.81,53.14l-48.95 -8.83c6.91,-37.51 20.73,-64.7 41.69,-81.8 20.97,-17.12 50.99,-25.61 89.97,-25.61 30.36,0 54.16,5.66 71.49,17.1 17.23,11.34 28.21,25.5 32.74,42.27 4.54,16.88 6.8,41.35 6.8,73.65l0 79.65c0,55.74 1.02,90.87 3.17,105.37 2.05,14.39 6.24,28.56 12.47,42.26l-50.98 0c-5.22,-12.12 -8.61,-26.62 -10.2,-43.4zm-3.74 -133.36c-17.9,8.85 -44.64,16.32 -80.11,22.44 -20.62,3.52 -35,7.6 -43.17,12.12 -8.27,4.54 -14.61,11 -19.15,19.27 -4.52,8.27 -6.79,17.9 -6.79,28.78 0,16.76 5.21,30.25 15.64,40.34 10.42,10.07 24.8,15.06 43.17,15.06 17.56,0 33.42,-4.53 47.69,-13.6 14.27,-9.06 25.04,-21.18 32.07,-36.36 7.13,-15.07 10.65,-37.17 10.65,-66.18l0 -21.87zm125.43 176.76l0 -352.83 44.18 0 0 50.54c10.65,-19.49 23.57,-33.99 38.87,-43.62 15.41,-9.64 32.97,-14.39 52.8,-14.39 15.52,0 29.79,3.06 42.94,9.18 13.13,6 23.68,13.93 31.72,23.79 8.05,9.86 14.05,22.66 18.02,38.41 3.96,15.64 6,39.77 6,72.28l0 216.64 -48.95 0 0 -214.36c0,-25.95 -2.15,-44.88 -6.56,-56.77 -4.43,-11.9 -11.34,-21.19 -20.75,-27.76 -9.4,-6.46 -20.16,-9.75 -32.62,-9.75 -23.35,0 -41.93,8.73 -55.86,26.18 -13.93,17.56 -20.85,47.47 -20.85,89.95l0 192.51 -48.94 0zm498.3 -43.4c-16.44,17.12 -33.43,29.91 -51.1,38.53 -17.79,8.72 -36.15,13.02 -55.19,13.02 -30.13,0 -54.15,-9.06 -72.05,-27.3 -18.01,-18.13 -26.96,-42.6 -26.96,-73.42 0,-20.39 4.18,-38.4 12.69,-54.15 8.38,-15.75 19.93,-28.1 34.55,-36.94 14.62,-8.85 36.82,-15.41 66.51,-19.6 39.88,-5.67 69.22,-12.47 87.81,-20.39l0.34 -15.3c0,-24.26 -4.3,-41.25 -12.92,-51.11 -12.12,-14.15 -30.82,-21.3 -55.96,-21.3 -22.78,0 -39.78,4.77 -51.11,14.16 -11.21,9.41 -19.49,27.2 -24.81,53.14l-48.95 -8.83c6.91,-37.51 20.73,-64.7 41.69,-81.8 20.97,-17.12 50.99,-25.61 89.97,-25.61 30.36,0 54.16,5.66 71.49,17.1 17.23,11.34 28.21,25.5 32.74,42.27 4.54,16.88 6.8,41.35 6.8,73.65l0 79.65c0,55.74 1.02,90.87 3.17,105.37 2.05,14.39 6.24,28.56 12.47,42.26l-50.98 0c-5.22,-12.12 -8.61,-26.62 -10.2,-43.4zm-3.74 -133.36c-17.9,8.85 -44.64,16.32 -80.11,22.44 -20.62,3.52 -35,7.6 -43.17,12.12 -8.27,4.54 -14.61,11 -19.15,19.27 -4.52,8.27 -6.79,17.9 -6.79,28.78 0,16.76 5.21,30.25 15.64,40.34 10.42,10.07 24.81,15.06 43.17,15.06 17.56,0 33.42,-4.53 47.69,-13.6 14.27,-9.06 25.04,-21.18 32.07,-36.36 7.13,-15.07 10.65,-37.17 10.65,-66.18l0 -21.87zm115.91 206l47.58 8.83c2.27,18.81 8.95,32.74 20.06,41.92 11.21,9.18 26.62,13.83 46.57,13.83 21.64,0 38.86,-5.11 51.66,-15.41 12.81,-10.31 21.53,-25.61 26.28,-45.89 2.83,-12.35 4.31,-38.41 4.31,-78.18 -10.65,15.07 -22.66,26.51 -36.02,34.22 -13.26,7.59 -28.1,11.44 -44.31,11.44 -34.67,0 -63.44,-14.61 -86.34,-43.85 -26.16,-33.54 -39.31,-78.51 -39.31,-134.94 0,-37.85 5.78,-70.93 17.33,-99.26 11.56,-28.32 26.62,-49.06 45.43,-62.3 18.7,-13.26 39.78,-19.95 63.12,-19.95 16.99,0 32.62,4.2 46.68,12.46 14.16,8.38 26.62,20.85 37.5,37.51l0 -42.5 44.87 0 0 304.68c0,54.27 -4.42,92.91 -13.26,116.02 -8.95,23.12 -23.45,41.47 -43.61,54.83 -20.18,13.38 -44.42,20.06 -72.86,20.06 -37.4,0 -66.28,-10.08 -86.45,-30.13 -20.17,-20.06 -29.91,-47.82 -29.23,-83.39zm40.78 -211.77c0,46.45 7.71,80.33 23,101.63 15.3,21.3 34,31.95 56.21,31.95 22.2,0 41,-10.42 56.54,-31.27 15.51,-20.84 23.33,-54.04 23.33,-99.59 0,-44.41 -7.92,-77.38 -23.9,-99.02 -15.98,-21.64 -35.47,-32.53 -58.35,-32.53 -20.4,0 -38.3,10.89 -53.71,32.53 -15.41,21.64 -23.12,53.7 -23.12,96.3zm476.55 69.68l50.31 7.48c-8.39,37.5 -23.68,65.83 -45.65,84.87 -22.1,19.15 -49.4,28.65 -81.93,28.65 -41.02,0 -74.1,-15.51 -99.48,-46.67 -25.37,-31.04 -38.06,-75.92 -38.06,-134.61 0,-60.84 12.79,-107.18 38.4,-139.25 25.61,-31.94 57.9,-47.92 97.22,-47.92 37.39,0 68.65,15.64 93.69,47.02 24.93,31.39 37.51,76.82 37.51,136.31l-0.34 15.85 -216.18 0c2.04,39.77 11.22,69.8 27.64,89.97 16.43,20.28 36.38,30.36 59.94,30.36 36.83,0 62.55,-24.02 76.93,-72.06zm-161.57 -97.21l161.57 0c-2.26,-30.6 -8.72,-53.36 -19.6,-68.44 -15.75,-21.87 -35.8,-32.86 -60.16,-32.86 -21.98,0 -40.68,9.18 -56.2,27.42 -15.52,18.24 -24.02,42.83 -25.61,73.88zm273.75 210.06l0 -352.83 44.18 0 0 49.86c9.74,-18.36 22.09,-32.52 37.28,-42.38 15.29,-9.97 31.84,-14.95 49.96,-14.95 20.28,0 37.4,5.21 51.33,15.75 13.94,10.42 23.91,25.71 29.92,45.89 11.55,-20.51 24.81,-35.92 39.76,-46.23 14.96,-10.32 31.5,-15.41 49.63,-15.41 27.76,0 49.63,9.4 65.6,28.21 15.97,18.81 23.91,48.83 23.91,90.19l0 241.9 -48.94 0 0 -222.07c0,-25.16 -1.82,-43.06 -5.45,-53.6 -3.73,-10.42 -9.63,-18.57 -17.79,-24.36 -8.27,-5.78 -17.44,-8.61 -27.64,-8.61 -21.08,0 -38.19,8.38 -51.55,25.04 -13.26,16.78 -19.95,42.94 -19.95,78.87l0 204.73 -48.94 0 0 -228.99c0,-29.22 -4.42,-49.74 -13.38,-61.75 -8.95,-11.89 -21.3,-17.9 -36.93,-17.9 -22.2,0 -39.77,9.07 -52.69,27.08 -12.91,18.02 -19.37,50.88 -19.37,98.69l0 182.87 -48.94 0zm662.24 -112.85l50.31 7.48c-8.39,37.5 -23.68,65.83 -45.66,84.87 -22.09,19.15 -49.4,28.65 -81.92,28.65 -41.02,0 -74.1,-15.51 -99.48,-46.67 -25.38,-31.04 -38.06,-75.92 -38.06,-134.61 0,-60.84 12.79,-107.18 38.4,-139.25 25.61,-31.94 57.9,-47.92 97.22,-47.92 37.38,0 68.65,15.64 93.69,47.02 24.93,31.39 37.51,76.82 37.51,136.31l-0.34 15.85 -216.18 0c2.04,39.77 11.22,69.8 27.64,89.97 16.43,20.28 36.38,30.36 59.94,30.36 36.83,0 62.55,-24.02 76.93,-72.06zm-161.57 -97.21l161.57 0c-2.26,-30.6 -8.72,-53.36 -19.6,-68.44 -15.75,-21.87 -35.8,-32.86 -60.16,-32.86 -21.98,0 -40.68,9.18 -56.2,27.42 -15.52,18.24 -24.02,42.83 -25.61,73.88zm273.75 210.06l0 -352.83 44.18 0 0 50.54c10.65,-19.49 23.57,-33.99 38.87,-43.62 15.41,-9.64 32.97,-14.39 52.8,-14.39 15.52,0 29.79,3.06 42.94,9.18 13.13,6 23.68,13.93 31.72,23.79 8.05,9.86 14.05,22.66 18.02,38.41 3.96,15.64 6,39.77 6,72.28l0 216.64 -48.95 0 0 -214.36c0,-25.95 -2.15,-44.88 -6.56,-56.77 -4.43,-11.9 -11.34,-21.19 -20.75,-27.76 -9.4,-6.46 -20.16,-9.75 -32.62,-9.75 -23.35,0 -41.93,8.73 -55.86,26.18 -13.93,17.56 -20.85,47.47 -20.85,89.95l0 192.51 -48.94 0zm419.44 -53.7l6.79 53.02c-13.59,3.63 -25.82,5.44 -36.71,5.44 -17.1,0 -30.81,-3.4 -41.35,-10.2 -10.42,-6.68 -17.56,-15.97 -21.41,-27.76 -3.97,-11.66 -5.89,-35.12 -5.89,-70.13l0 -203.26 -36.04 0 0 -46.24 36.04 0 0 -87.01 48.94 -36.03 0 123.04 49.63 0 0 46.24 -49.63 0 0 206.65c0,19.15 1.47,31.39 4.3,36.95 4.2,8.04 12.13,12.01 23.69,12.01 5.55,0 12.81,-0.91 21.64,-2.72zm-4457.99 609.1l50.3 -4.75c2.62,26.74 8.62,47.58 18.03,62.54 9.4,14.95 22.77,26.97 40.22,36.03 17.45,9.07 37.16,13.59 58.92,13.59 31.38,0 55.73,-7.7 73.08,-22.99 17.33,-15.41 25.94,-35.36 25.94,-59.83 0,-14.39 -3.18,-26.85 -9.51,-37.62 -6.23,-10.64 -15.75,-19.48 -28.56,-26.28 -12.69,-6.91 -40.22,-16.55 -82.49,-28.9 -37.61,-11.1 -64.35,-22.32 -80.32,-33.53 -15.98,-11.33 -28.44,-25.73 -37.28,-43.06 -8.96,-17.33 -13.37,-37.05 -13.37,-58.92 0,-39.42 12.69,-71.6 38.19,-96.65 25.37,-25.04 59.7,-37.49 102.75,-37.49 29.7,0 55.64,5.89 77.85,17.56 22.21,11.78 39.42,28.67 51.77,50.54 12.24,21.85 18.81,47.69 19.72,77.37l-50.31 4.77c-2.6,-31.62 -12.12,-55.07 -28.44,-70.25 -16.19,-15.3 -39.09,-22.89 -68.54,-22.89 -29.92,0 -52.69,6.69 -68.44,20.06 -15.75,13.36 -23.57,30.59 -23.57,51.78 0,19.7 5.79,35 17.34,45.77 11.44,10.87 37.39,21.75 77.73,32.74 39.43,10.65 67.07,20.06 83.05,27.87 24.36,12.35 42.71,28.56 54.95,48.83 12.35,20.29 18.47,44.42 18.47,72.52 0,27.88 -6.57,53.26 -19.61,76.14 -13.03,23 -30.82,40.34 -53.24,52.34 -22.44,11.9 -49.4,17.9 -81.13,17.9 -49.29,0 -88.6,-14.84 -117.84,-44.52 -29.35,-29.68 -44.53,-69.9 -45.66,-120.67zm571.62 157.04l0 -51.78c-11.22,19.94 -24.6,34.9 -39.78,44.98 -15.29,9.97 -32.51,14.95 -51.78,14.95 -22.76,0 -42.14,-6.1 -58.35,-18.45 -16.09,-12.25 -26.85,-27.89 -32.28,-46.69 -5.45,-18.81 -8.17,-44.53 -8.17,-77.16l0 -218.68 48.95 0 0 195.68c0,36.37 1.82,60.61 5.44,72.96 3.62,12.24 10.42,22.1 20.17,29.58 9.86,7.36 21.07,11.1 33.65,11.1 23.34,0 42.48,-9.63 57.55,-28.89 12.81,-16.65 19.15,-47.13 19.15,-91.44l0 -188.99 48.95 0 0 352.83 -43.5 0zm121 -418.08l0 -68.67 48.94 0 0 68.67 -48.94 0zm0 418.08l0 -352.83 48.94 0 0 352.83 -48.94 0zm233.29 -53.7l6.79 53.02c-13.59,3.63 -25.82,5.44 -36.71,5.44 -17.1,0 -30.81,-3.4 -41.35,-10.2 -10.42,-6.68 -17.56,-15.97 -21.41,-27.76 -3.97,-11.66 -5.89,-35.12 -5.89,-70.13l0 -203.26 -36.04 0 0 -46.24 36.04 0 0 -87.01 48.94 -36.03 0 123.04 49.63 0 0 46.24 -49.63 0 0 206.65c0,19.15 1.47,31.39 4.3,36.95 4.2,8.04 12.13,12.01 23.69,12.01 5.55,0 12.81,-0.91 21.64,-2.72zm243.37 -59.15l50.3 7.48c-8.38,37.5 -23.67,65.83 -45.65,84.87 -22.1,19.15 -49.4,28.65 -81.92,28.65 -41.02,0 -74.1,-15.51 -99.48,-46.67 -25.38,-31.04 -38.07,-75.92 -38.07,-134.61 0,-60.84 12.8,-107.18 38.41,-139.25 25.61,-31.94 57.9,-47.92 97.21,-47.92 37.39,0 68.66,15.64 93.7,47.02 24.93,31.39 37.51,76.82 37.51,136.31l-0.34 15.85 -216.18 0c2.03,39.77 11.21,69.8 27.64,89.97 16.43,20.28 36.37,30.36 59.94,30.36 36.83,0 62.54,-24.02 76.93,-72.06zm-161.57 -97.21l161.57 0c-2.27,-30.6 -8.72,-53.36 -19.6,-68.44 -15.75,-21.87 -35.8,-32.86 -60.16,-32.86 -21.98,0 -40.68,9.18 -56.2,27.42 -15.52,18.24 -24.02,42.83 -25.61,73.88z"/>
  </g>
 </g>
</svg>
